<?xml version="1.0" encoding="UTF-8" standalone="no"?>
<!-- Created with Inkscape (http://www.inkscape.org/) -->

<svg
   width="4.2333302mm"
   height="4.2333331mm"
   viewBox="0 0 4.2333302 4.2333331"
   version="1.1"
   id="svg1"
   xml:space="preserve"
   inkscape:version="1.4 (86a8ad7, 2024-10-11)"
   sodipodi:docname="icon_2.svg"
   xmlns:inkscape="http://www.inkscape.org/namespaces/inkscape"
   xmlns:sodipodi="http://sodipodi.sourceforge.net/DTD/sodipodi-0.dtd"
   xmlns="http://www.w3.org/2000/svg"
   xmlns:svg="http://www.w3.org/2000/svg"><sodipodi:namedview
     id="namedview1"
     pagecolor="#ffffff"
     bordercolor="#000000"
     borderopacity="0.25"
     inkscape:showpageshadow="2"
     inkscape:pageopacity="0.0"
     inkscape:pagecheckerboard="0"
     inkscape:deskcolor="#d1d1d1"
     inkscape:document-units="mm"
     inkscape:zoom="4.9730289"
     inkscape:cx="21.41552"
     inkscape:cy="4.1222363"
     inkscape:window-width="1920"
     inkscape:window-height="1009"
     inkscape:window-x="-8"
     inkscape:window-y="-8"
     inkscape:window-maximized="1"
     inkscape:current-layer="layer1" /><defs
     id="defs1" /><g
     inkscape:label="Capa 1"
     inkscape:groupmode="layer"
     id="layer1"
     transform="translate(-99.440959,-111.21791)"><g
       style="fill:currentColor;stroke:currentColor;stroke-width:0"
       id="g1"
       transform="matrix(0.00512678,0,0,0.00523134,100.95658,109.3881)"><ellipse
         style="fill:#ce3636;fill-opacity:1;stroke-width:0"
         id="path2"
         ry="404.61267"
         rx="412.86444"
         cy="754.39142"
         cx="117.23611" /><path
         d="M 85.088886,939.73717 39.475224,926.38101 c -4.785696,-1.35826 -7.47765,-6.41399 -6.131673,-11.24334 L 135.41347,560.33122 c 1.34597,-4.82935 6.356,-7.54586 11.14169,-6.1876 l 45.61367,13.35617 c 4.7857,1.35826 7.47765,6.41399 6.13167,11.24334 L 96.230584,933.54958 c -1.420754,4.82933 -6.356002,7.6213 -11.141698,6.18759 z M -0.15631821,855.07261 32.371457,820.05981 c 3.439719,-3.69748 3.215389,-9.58325 -0.598212,-12.97889 L -35.974263,746.9404 31.773245,686.79988 c 3.813601,-3.39564 4.112707,-9.28141 0.598212,-12.97889 L -0.15631821,638.80819 C -3.5212612,635.18618 -9.2042742,634.9598 -12.868323,638.4309 L -120.62125,740.30004 c -3.8136,3.54656 -3.8136,9.6587 0,13.20526 l 107.752927,101.9446 c 3.6640488,3.4711 9.3470618,3.32018 12.71200479,-0.37729 z M 244.51238,855.52536 352.26531,753.58076 c 3.8136,-3.54656 3.8136,-9.65871 0,-13.20526 L 244.51238,638.35544 c -3.58928,-3.39564 -9.27229,-3.24472 -12.71201,0.37729 l -32.52777,35.0128 c -3.43972,3.69748 -3.21539,9.58325 0.59821,12.97889 l 67.7475,60.21598 -67.7475,60.14052 c -3.8136,3.39564 -4.11271,9.28141 -0.59821,12.97889 l 32.52777,35.0128 c 3.36494,3.69747 9.04796,3.84839 12.71201,0.45275 z"
         id="path1"
         style="fill:#ffffff;fill-opacity:1;stroke:currentColor;stroke-width:0" /></g></g></svg>
